<?xml version="1.0" standalone="no"?>
<!DOCTYPE svg PUBLIC "-//W3C//DTD SVG 20010904//EN"
 "http://www.w3.org/TR/2001/REC-SVG-20010904/DTD/svg10.dtd">
<svg version="1.0" xmlns="http://www.w3.org/2000/svg"
 width="1054.000000pt" height="1054.000000pt" viewBox="0 0 1054.000000 1054.000000"
 preserveAspectRatio="xMidYMid meet">
<metadata>
Created by potrace 1.14, written by Peter Selinger 2001-2017
</metadata>
<g transform="translate(0.000000,1054.000000) scale(0.100000,-0.100000)"
fill="#000000" stroke="none">
<path d="M7 7323 c6 -15 247 -346 288 -395 7 -9 22 -29 32 -45 10 -15 23 -34
30 -41 24 -25 221 -328 258 -397 21 -38 46 -82 57 -97 10 -14 18 -29 18 -32 0
-4 17 -43 39 -89 21 -45 41 -90 44 -100 8 -21 35 -33 47 -21 5 5 11 34 14 64
3 30 8 64 10 75 2 11 7 40 11 65 25 154 142 394 273 560 102 128 307 313 455
409 37 24 67 47 67 52 0 5 -355 9 -825 9 -781 0 -824 -1 -818 -17z"/>
<path d="M2802 7258 c-22 -46 -111 -227 -197 -403 -87 -176 -206 -419 -265
-540 -59 -121 -176 -359 -260 -530 -84 -170 -199 -404 -255 -520 -56 -115
-170 -348 -253 -516 -83 -169 -150 -313 -149 -320 3 -17 22 -50 197 -345 58
-97 112 -188 120 -203 9 -14 49 -82 90 -151 41 -69 77 -129 79 -135 2 -5 22
-39 44 -75 22 -36 45 -74 51 -85 56 -102 151 -246 154 -234 6 18 93 198 342
714 40 83 89 186 110 230 21 44 75 157 120 250 45 94 98 204 117 245 20 41 82
171 139 288 57 118 104 215 104 217 0 2 45 97 101 212 56 114 116 240 134 278
18 39 64 135 103 215 92 192 169 354 225 470 25 52 84 176 132 275 82 168 117
242 217 455 103 218 128 272 128 281 0 5 -265 9 -644 9 l-645 0 -39 -82z"/>
<path d="M5088 7222 c-53 -107 -235 -480 -548 -1117 -67 -137 -176 -360 -242
-495 -224 -457 -360 -734 -464 -945 -98 -198 -116 -248 -95 -271 5 -5 18 -25
29 -44 10 -19 86 -147 167 -285 82 -137 153 -259 159 -270 6 -11 19 -31 27
-45 13 -20 133 -221 174 -292 178 -305 152 -287 215 -153 29 61 88 184 132
275 44 91 97 201 118 245 21 44 69 145 108 225 38 80 102 213 142 295 40 83
89 186 110 230 21 44 70 148 110 230 40 83 97 202 127 265 31 63 82 171 115
240 33 69 82 170 108 225 26 55 80 168 120 250 73 151 137 284 237 495 81 168
153 318 220 460 33 69 82 170 108 225 26 55 68 143 93 195 25 52 46 97 47 100
0 3 9 19 18 37 9 18 17 34 17 38 0 3 -291 5 -647 5 l-648 -1 -57 -117z"/>
<path d="M7210 7327 c0 -8 20 -54 44 -103 24 -49 67 -138 96 -199 52 -110 97
-204 225 -470 37 -77 91 -189 120 -250 29 -60 83 -173 120 -250 113 -234 195
-404 250 -520 29 -60 82 -171 117 -245 36 -74 86 -178 111 -230 24 -52 75
-158 112 -235 37 -77 91 -189 120 -250 29 -60 85 -177 125 -260 40 -82 89
-186 110 -230 21 -44 70 -147 110 -230 40 -82 98 -204 130 -270 31 -66 78
-164 104 -217 25 -53 46 -101 46 -106 0 -6 13 -23 28 -40 l28 -30 659 5 c363
3 661 6 663 7 1 2 -11 30 -27 62 -16 32 -99 201 -184 374 -85 173 -225 459
-312 635 -87 176 -219 446 -295 600 -490 999 -751 1529 -998 2028 l-216 437
-643 0 c-528 0 -643 -2 -643 -13z"/>
<path d="M6511 4597 c-212 -418 -386 -761 -622 -1227 -46 -91 -85 -168 -87
-171 -2 -4 423 -7 943 -7 520 0 945 2 945 5 0 3 -100 202 -221 442 -122 240
-332 654 -467 921 -134 267 -247 488 -251 492 -3 4 -111 -201 -240 -455z"/>
</g>
</svg>
